Soccer Kick
version=1
nRows=12
nColumns=41
inDegrees=yes
endheader
time	/jointset/ground_pelvis/turn/value	/jointset/ground_pelvis/turn/speed	/jointset/hip_r/hip_flexion_r/value	/jointset/hip_r/hip_flexion_r/speed	/jointset/knee_r/knee_angle_r/value	/jointset/knee_r/knee_angle_r/speed	/jointset/tib_pat_r/knee_angle_pat_r/value	/jointset/tib_pat_r/knee_angle_pat_r/speed	/jointset/ankle_r/ankle_angle_r/value	/jointset/ankle_r/ankle_angle_r/speed	/jointset/free/ball_rx/value	/jointset/free/ball_rx/speed	/jointset/free/ball_ry/value	/jointset/free/ball_ry/speed	/jointset/free/ball_rz/value	/jointset/free/ball_rz/speed	/jointset/free/ball_tx/value	/jointset/free/ball_tx/speed	/jointset/free/ball_ty/value	/jointset/free/ball_ty/speed	/jointset/free/ball_tz/value	/jointset/free/ball_tz/speed	/forceset/bifemlh_r/activation	/forceset/bifemlh_r/fiber_length	/forceset/bifemsh_r/activation	/forceset/bifemsh_r/fiber_length	/forceset/glut_max2_r/activation	/forceset/glut_max2_r/fiber_length	/forceset/psoas_r/activation	/forceset/psoas_r/fiber_length	/forceset/rect_fem_r/activation	/forceset/rect_fem_r/fiber_length	/forceset/vas_int_r/activation	/forceset/vas_int_r/fiber_length	/forceset/med_gas_r/activation	/forceset/med_gas_r/fiber_length	/forceset/soleus_r/activation	/forceset/soleus_r/fiber_length	/forceset/tib_ant_r/activation	/forceset/tib_ant_r/fiber_length
      2.66914040	      8.38354893	    -11.21563294	      3.48266520	      2.47115908	      0.44365858	      0.00940988	      0.00774330	      0.00016423	     19.71331805	     -1.25063463	     25.64987654	     72.64925247	      6.11269035	    -87.92275123	   -670.68020928	   -435.99353013	      5.41200367	      0.88706835	      0.11700458	     -0.21557152	      1.01417817	      0.15780378	     -0.31820971	      0.11339791	     -0.31820971	      0.19859680	     -0.31820971	      0.09301417	     -0.31820971	      0.10671642	     -0.31820971	      0.11296012	     -0.31820971	      0.07741059	     -0.31820971	      0.12250063	     -0.31820971	      0.10577474	     -0.31820971	      0.07521178
      2.67122116	      8.36017475	    -11.25139244	      3.48781516	      2.47899321	      0.44367814	      0.00893528	      0.00774364	      0.00015595	     19.71070928	     -1.25782004	     25.87639070	     72.64925247	      5.55360743	    -87.92275123	   -671.42154690	   -435.99353013	      5.41384944	      0.88706835	      0.11653479	     -0.23597678	      1.01450652	      0.15780378	     -0.31847761	      0.11340322	     -0.31847761	      0.19859681	     -0.31847761	      0.09301963	     -0.31847761	      0.10671267	     -0.31847761	      0.11295602	     -0.31847761	      0.07741057	     -0.31847761	      0.12249880	     -0.31847761	      0.10577303	     -0.31847761	      0.07521381
      2.67297908	      8.34036907	    -11.28169081	      3.49217879	      2.48546497	      0.44369405	      0.00972618	      0.00774392	      0.00016975	     19.70849391	     -1.26149615	     26.06192690	     72.64925247	      5.07903225	    -87.92275123	   -672.04560364	   -435.99353013	      5.41540884	      0.88706835	      0.11610481	     -0.25321609	      1.01478393	      0.15780378	     -0.31870394	      0.11340772	     -0.31870394	      0.19859682	     -0.31870394	      0.09302426	     -0.31870394	      0.10670949	     -0.31870394	      0.11295255	     -0.31870394	      0.07741056	     -0.31870394	      0.12249726	     -0.31870394	      0.10577159	     -0.31870394	      0.07521552
      2.67473700	      8.32051002	    -11.31212668	      3.49655389	      2.49223032	      0.44371082	      0.00862085	      0.00774421	      0.00015046	     19.70627097	     -1.26905386	     26.24213618	     72.64925247	      4.60247625	    -87.92275123	   -672.66767691	   -435.99353013	      5.41696823	      0.88706835	      0.11564453	     -0.27045541	      1.01506133	      0.15780378	     -0.31893027	      0.11341223	     -0.31893027	      0.19859682	     -0.31893027	      0.09302889	     -0.31893027	      0.10670631	     -0.31893027	      0.11294906	     -0.31893027	      0.07741054	     -0.31893027	      0.12249570	     -0.31893027	      0.10577014	     -0.31893027	      0.07521725
      2.67649492	      8.30059739	    -11.34261616	      3.50094081	      2.49865872	      0.44372636	      0.01002172	      0.00774449	      0.00017491	     19.70403616	     -1.27154378	     26.41703296	     72.64925247	      4.12400170	    -87.92275123	   -673.28784894	   -435.99353013	      5.41852763	      0.88706835	      0.11515393	     -0.28769473	      1.01533874	      0.15780378	     -0.31915660	      0.11341675	     -0.31915660	      0.19859683	     -0.31915660	      0.09303354	     -0.31915660	      0.10670311	     -0.31915660	      0.11294557	     -0.31915660	      0.07741053	     -0.31915660	      0.12249414	     -0.31915660	      0.10576868	     -0.31915660	      0.07521898
      2.67767136	      8.28724141	    -11.36311161	      3.50388303	      2.50322876	      0.44373757	      0.00917454	      0.00774468	      0.00016013	     19.70253699	     -1.27685223	     26.53114135	     72.71839503	      3.80274565	    -87.92413448	   -673.70187844	   -436.05334136	      5.41957098	      0.88635319	      0.11480929	     -0.29740463	      1.01552410	      0.15693481	     -0.31930807	      0.11341978	     -0.31930807	      0.19859683	     -0.31930807	      0.09303666	     -0.31930807	      0.10670097	     -0.31930807	      0.11294323	     -0.31930807	      0.07741051	     -0.31930807	      0.12249310	     -0.31930807	      0.10576770	     -0.31930807	      0.07522014
      2.67843570	      8.27855101	    -11.37644162	      3.50579746	      2.50612398	      0.44374459	      0.00917765	      0.00774480	      0.00016018	     19.70156015	     -1.27918240	     26.60411498	     72.91250214	      3.59354336	    -87.92809366	   -673.97053225	   -436.23317619	      5.42024776	      0.88419403	      0.11458076	     -0.29992899	      1.01564325	      0.15449484	     -0.31940648	      0.11342176	     -0.31940648	      0.19859683	     -0.31940648	      0.09303869	     -0.31940648	      0.10669957	     -0.31940648	      0.11294170	     -0.31940648	      0.07741051	     -0.31940648	      0.12249241	     -0.31940648	      0.10576706	     -0.31940648	      0.07522090
      2.67958886	      8.26542060	    -11.39658954	      3.50868993	      2.51050253	      0.44375516	      0.00916426	      0.00774499	      0.00015995	     19.70008300	     -1.28274424	     26.71272132	     73.33062983	      3.27710294	    -87.93720381	   -674.37556700	   -436.67307613	      5.42126424	      0.87891128	      0.11423650	     -0.29528601	      1.01581816	      0.14914458	     -0.31955495	      0.11342474	     -0.31955495	      0.19859684	     -0.31955495	      0.09304176	     -0.31955495	      0.10669747	     -0.31955495	      0.11293940	     -0.31955495	      0.07741050	     -0.31955495	      0.12249138	     -0.31955495	      0.10576610	     -0.31955495	      0.07522204
      2.68007438	      8.25988522	    -11.40508588	      3.50990929	      2.51234919	      0.44375961	      0.00915695	      0.00774507	      0.00015982	     19.69945984	     -1.28425078	     26.75789057	     73.40543221	      3.14357859	    -87.93937746	   -674.54600292	   -436.78725078	      5.42169062	      0.87755780	      0.11409438	     -0.28975016	      1.01589028	      0.14806204	     -0.31961746	      0.11342600	     -0.31961746	      0.19859684	     -0.31961746	      0.09304305	     -0.31961746	      0.10669658	     -0.31961746	      0.11293843	     -0.31961746	      0.07741049	     -0.31961746	      0.12249095	     -0.31961746	      0.10576569	     -0.31961746	      0.07522253
      2.68066663	      8.25312747	    -11.41546053	      3.51139790	      2.51460407	      0.44376503	      0.00914809	      0.00774516	      0.00015966	     19.69869869	     -1.28609113	     26.81247389	     73.43173350	      2.98049549	    -87.94083271	   -674.75378314	   -436.86915610	      5.42221005	      0.87660791	      0.11392553	     -0.27984987	      1.01597778	      0.14747825	     -0.31969371	      0.11342753	     -0.31969371	      0.19859684	     -0.31969371	      0.09304463	     -0.31969371	      0.10669550	     -0.31969371	      0.11293725	     -0.31969371	      0.07741049	     -0.31969371	      0.12249041	     -0.31969371	      0.10576519	     -0.31969371	      0.07522312
      2.68125889	      8.24636357	    -11.42584691	      3.51288785	      2.51686150	      0.44377045	      0.00913924	      0.00774526	      0.00015951	     19.69793646	     -1.28793456	     26.86646429	     73.42945313	      2.81719741	    -87.94177044	   -674.96141274	   -436.92506943	      5.42272903	      0.87597435	      0.11376360	     -0.26636937	      1.01606503	      0.14718071	     -0.31976996	      0.11342907	     -0.31976996	      0.19859684	     -0.31976996	      0.09304620	     -0.31976996	      0.10669441	     -0.31976996	      0.11293606	     -0.31976996	      0.07741048	     -0.31976996	      0.12248988	     -0.31976996	      0.10576470	     -0.31976996	      0.07522371
      2.68201529	      8.23771595	    -11.43912916	      3.51479271	      2.51974834	      0.44377736	      0.00912791	      0.00774538	      0.00015931	     19.69696136	     -1.29029345	     26.93454134	     73.41342616	      2.60833523	    -87.94275883	   -675.22636508	   -436.98498343	      5.42339137	      0.87529849	      0.11357025	     -0.24390410	      1.01617625	      0.14686855	     -0.31986735	      0.11343103	     -0.31986735	      0.19859685	     -0.31986735	      0.09304822	     -0.31986735	      0.10669302	     -0.31986735	      0.11293454	     -0.31986735	      0.07741048	     -0.31986735	      0.12248920	     -0.31986735	      0.10576406	     -0.31986735	      0.07522446
